<svg width="851" height="851" viewBox="0 0 851 851" fill="none" xmlns="http://www.w3.org/2000/svg">
<path d="M413.195 49.8674H517.465C563.447 49.8674 653.47 82.8965 653.47 145.717C653.47 159.317 669.013 161.907 675.489 161.907H759.035C765.943 170.758 781.443 191.569 788.179 204.003H714.995C691.033 204.003 641.164 182.274 641.164 149.602C641.164 108.763 587.41 66.0582 517.465 66.0582H413.195V75.7726H496.093C531.497 74.9091 602.954 84.0623 602.954 143.126C602.954 212.034 632.097 215.661 646.345 215.661H795.303C800.916 226.023 813.437 250.114 818.618 263.585H691.68C628.859 263.585 587.41 237.032 587.41 198.175V142.97C587.41 135.81 586.062 128.545 581.36 123.145C570.541 110.721 547.285 95.238 508.398 91.9633H413.195V102.325H496.74C517.249 101.678 558.007 110.226 556.971 149.602C556.971 171.622 538.837 205.946 538.837 219.546C538.837 231.204 555.028 282.366 691.68 282.366C730.971 281.503 812.271 278.869 823.151 275.242C827.685 287.763 837.011 315.007 838.047 323.815C839.083 332.622 710.678 327.484 646.345 323.815C606.408 319.281 526.532 292.081 526.532 219.546C526.532 190.403 538.837 189.108 538.837 149.602C538.837 139.24 532.749 119.811 503.217 119.811H413.195L413.195 102.325V91.9633V75.7726V66.0582L413.195 49.8674Z" fill="url(#paint0_linear)"/>
<path d="M413.195 130.173H484.435C493.718 129.958 512.284 136.261 512.284 155.431C512.284 179.393 476.016 222.784 476.016 257.109C476.016 291.433 517.465 347.777 679.375 347.777C808.903 347.777 831.571 338.71 840.638 336.12C843.228 347.345 848.409 373.812 848.409 389.873C835.457 391.816 797.246 395.701 748.025 395.701C686.499 395.701 459.825 411.892 459.825 257.109C459.825 222.137 491.559 190.921 491.559 161.907C491.559 152.193 484.306 146.364 460.473 146.364H413.195V156.079H442.986C452.053 156.079 470.187 160.223 470.187 176.803C470.187 202.708 401.537 247.394 401.537 302.443C405.423 341.516 461.25 419.664 653.47 419.664C775.226 419.664 818.618 414.483 848.409 410.597C849.921 420.527 851 437.15 851 460.464C851 595.171 717.829 847.847 415.785 850.985C266.18 852.539 0 735.707 0 419.664C0 263.585 116.057 0 424.852 0C459.177 0.863506 532.102 6.86487 549.199 23.9623C566.297 41.0597 542.723 36.2672 531.065 36.2672C519.408 36.2672 493.243 23.9623 424.852 23.9623C274.922 23.9623 31.0868 132.116 31.0868 419.664C31.0868 549.19 141.186 799.174 415.785 799.174C673.547 799.174 802.427 571.857 802.427 468.236H605.544C556.971 468.236 388.584 440.388 388.584 302.443C388.584 251.28 450.11 199.47 450.11 184.574C450.11 174.86 445.836 172.269 436.51 172.269H413.195V156.079V146.364V130.173Z" fill="url(#paint1_linear)"/>
<defs>
<linearGradient id="paint0_linear" x1="552.5" y1="522.5" x2="87.0001" y2="120" gradientUnits="userSpaceOnUse">
<stop stop-color="#4265A5"/>
<stop offset="1" stop-color="#85A6E2"/>
</linearGradient>
<linearGradient id="paint1_linear" x1="552.5" y1="522.5" x2="87.0001" y2="120" gradientUnits="userSpaceOnUse">
<stop stop-color="#4265A5"/>
<stop offset="1" stop-color="#85A6E2"/>
</linearGradient>
</defs>
</svg>
